<?xml version="1.0" encoding="UTF-8"?>
<svg width="752pt" height="752pt" version="1.1" viewBox="0 0 752 752" xmlns="http://www.w3.org/2000/svg">
 <g>
  <rect width="752" height="752" fill="#261b2c"/>
  <path d="m544.79 281.29c0-0.12891-0.039062-0.24609-0.050781-0.375-0.011719-0.14453-0.03125-0.28125-0.054687-0.42188-0.082032-0.54688-0.25781-1.0781-0.52344-1.5664l-0.003906-0.003906c-0.28906-0.48047-0.66406-0.90234-1.1016-1.25-0.10938-0.089844-0.21094-0.17188-0.32813-0.25-0.10547-0.074219-0.19141-0.16797-0.30469-0.23438l-164.05-94.715c-0.11328-0.066406-0.23828-0.089844-0.35547-0.14453-0.125-0.058594-0.25-0.10938-0.38281-0.15625v-0.003907c-1.0508-0.39453-2.2109-0.39453-3.2617 0-0.13281 0.050782-0.25391 0.097657-0.38281 0.15625-0.11719 0.054688-0.24219 0.082032-0.35547 0.14453l-164.05 94.715c-0.10938 0.0625-0.19531 0.16016-0.30078 0.23047-0.11719 0.082032-0.22656 0.16797-0.33594 0.25781v0.003906c-0.43359 0.34766-0.80469 0.76953-1.0938 1.2461h-0.003906v0.003906c-0.26562 0.48828-0.44531 1.0195-0.52734 1.5664-0.023437 0.14453-0.042968 0.27734-0.054687 0.42188-0.011719 0.125-0.050781 0.24609-0.050781 0.375v189.43c0 0.12891 0.039062 0.24609 0.050781 0.375 0.011719 0.14453 0.03125 0.28125 0.054687 0.42188v-0.003906c0.082032 0.55078 0.26172 1.082 0.52734 1.5703v0.003907l0.011719 0.015624h0.003906c0.20703 0.35547 0.46094 0.68359 0.75391 0.97266 0.32031 0.25 0.64453 0.49609 0.96484 0.74609l164.05 94.715c0.11328 0.066406 0.23828 0.089844 0.35547 0.14453 0.125 0.058593 0.25 0.10937 0.38281 0.15625v0.003906c1.043 0.44141 2.2188 0.44141 3.2617 0 0.13281-0.050782 0.25781-0.097656 0.38281-0.15625 0.11719-0.054688 0.24219-0.082032 0.35547-0.14453l164.05-94.715-0.003906-0.003907c0.32422-0.25 0.64844-0.49609 0.96875-0.74609 0.29297-0.28906 0.54688-0.61719 0.75391-0.97266l0.011719-0.015624v-0.003907h0.003906c0.26562-0.48828 0.44141-1.0195 0.52344-1.5703 0.023437-0.14453 0.042968-0.27734 0.054687-0.42188 0.011719-0.125 0.050781-0.24609 0.050781-0.375zm-328.11 8.2031 31.539 18.211v136.61l-31.543 18.211zm159.32 223.12-113.57-65.566 31.543-18.211 79.66 45.992c0.11328 0.066407 0.24219 0.09375 0.35938 0.14844 0.12891 0.0625 0.25391 0.10938 0.38672 0.16016 0.51562 0.20312 1.0664 0.3125 1.6211 0.32422h0.03125l0.050781-0.011719c0.53906-0.015625 1.0703-0.12891 1.5703-0.32812 0.13281-0.050781 0.25781-0.097656 0.38281-0.16016 0.10938-0.050781 0.22656-0.074219 0.33203-0.13672l79.656-45.992 31.543 18.211zm-77.289-175.76 71.973 41.555 0.53125 84.086-72.504-41.859zm81.977 125.7-0.53125-84.145 73.137-41.613v83.84zm-5.2656-92.348-71.973-41.555 72.551-41.887 72.504 41.859zm-4.1562-91.645-79.656 45.992c-0.10938 0.0625-0.19531 0.15625-0.29688 0.23047-0.12109 0.082031-0.23047 0.16797-0.33984 0.26172l-0.003906-0.003906c-0.43359 0.34766-0.80469 0.76953-1.0938 1.2422v0.007812h-0.003906c-0.26562 0.48438-0.44531 1.0156-0.52734 1.5664-0.023438 0.14453-0.042969 0.27734-0.054688 0.42188-0.011718 0.125-0.050781 0.24609-0.050781 0.375v91.98l-31.543 18.211v-131.14l113.57-65.57zm91.496 142.07v-91.98c0-0.12109-0.039063-0.23438-0.046875-0.35547-0.011719-0.14062-0.03125-0.27344-0.054688-0.41406-0.078125-0.53516-0.25-1.0547-0.50391-1.5312l-0.015625-0.042969-0.007813-0.007812h0.003907c-0.28516-0.47656-0.65234-0.89844-1.0859-1.2461-0.11328-0.09375-0.22266-0.17969-0.33984-0.26172-0.10938-0.078125-0.19922-0.17578-0.31641-0.24219l-79.656-45.992v-36.422l113.57 65.566v131.14zm36.281-121.13-118.3-68.305v-36.418l149.85 86.512zm-127.78-68.305-118.3 68.305-31.543-18.211 149.85-86.512zm-118.3 221.32 118.3 68.305v36.422l-149.85-86.516zm127.78 68.305 118.3-68.305 31.543 18.211-149.85 86.512zm123.04-76.508-0.003906-136.61 31.543-18.211v173.03z" fill="#fff"/>
 </g>
</svg>
